<?xml version="1.0" encoding="UTF-8" standalone="no"?>
<!DOCTYPE svg PUBLIC "-//W3C//DTD SVG 1.1//EN"
 "http://www.w3.org/Graphics/SVG/1.1/DTD/svg11.dtd">
<!-- Generated by graphviz version 2.43.0 (0)
 -->
<!-- Title: G Pages: 1 -->
<svg width="1264pt" height="768pt"
 viewBox="0.00 0.00 1264.38 768.00" xmlns="http://www.w3.org/2000/svg" xmlns:xlink="http://www.w3.org/1999/xlink">
<g id="graph0" class="graph" transform="scale(1 1) rotate(0) translate(4 764)">
<title>G</title><style>.edge>path:hover{stroke-width:8}</style>
<polygon fill="white" stroke="transparent" points="-4,4 -4,-764 1260.38,-764 1260.38,4 -4,4"/>
<!-- aiofiles -->
<g id="node1" class="node">
<title>aiofiles</title><style>.edge>path:hover{stroke-width:8}</style>
<polygon fill="#cc6b33" stroke="black" points="496.71,-472 493.71,-476 472.71,-476 469.71,-472 442.71,-472 442.71,-436 496.71,-436 496.71,-472"/>
<text text-anchor="middle" x="469.71" y="-451.5" font-family="Helvetica,sans-Serif" font-size="10.00" fill="#000000">aiofiles</text>
</g>
<!-- gradio -->
<g id="node8" class="node">
<title>gradio</title><style>.edge>path:hover{stroke-width:8}</style>
<polygon fill="blue" stroke="black" points="222.71,-363 219.71,-367 198.71,-367 195.71,-363 168.71,-363 168.71,-327 222.71,-327 222.71,-363"/>
<text text-anchor="middle" x="195.71" y="-342.5" font-family="Helvetica,sans-Serif" font-size="10.00" fill="white">gradio</text>
</g>
<!-- aiofiles&#45;&gt;gradio -->
<g id="edge1" class="edge">
<title>aiofiles&#45;&gt;gradio</title><style>.edge>path:hover{stroke-width:8}</style>
<path fill="none" stroke="black" d="M496.98,-439.41C499.89,-438.17 502.84,-437.01 505.71,-436 570.8,-413.15 701.06,-452.85 656.71,-400"/>
</g>
<!-- anyio -->
<g id="node2" class="node">
<title>anyio</title><style>.edge>path:hover{stroke-width:8}</style>
<polygon fill="#f38f16" stroke="black" points="736.71,-688 733.71,-692 712.71,-692 709.71,-688 682.71,-688 682.71,-652 736.71,-652 736.71,-688"/>
<text text-anchor="middle" x="709.71" y="-667.5" font-family="Helvetica,sans-Serif" font-size="10.00" fill="#000000">anyio</text>
</g>
<!-- anyio&#45;&gt;gradio -->
<g id="edge2" class="edge">
<title>anyio&#45;&gt;gradio</title><style>.edge>path:hover{stroke-width:8}</style>
<path fill="none" stroke="black" d="M706.46,-651.89C704.66,-641.54 702.61,-628.06 701.71,-616 700.51,-600.04 701.15,-595.99 701.71,-580 702.82,-547.94 702.62,-539.82 706.71,-508 709.77,-484.22 720.64,-478.65 716.71,-455"/>
</g>
<!-- starlette -->
<g id="node26" class="node">
<title>starlette</title><style>.edge>path:hover{stroke-width:8}</style>
<polygon fill="#8f10f9" stroke="black" points="806.71,-544 803.71,-548 782.71,-548 779.71,-544 748.71,-544 748.71,-508 806.71,-508 806.71,-544"/>
<text text-anchor="middle" x="777.71" y="-523.5" font-family="Helvetica,sans-Serif" font-size="10.00" fill="#ffffff">starlette</text>
</g>
<!-- anyio&#45;&gt;starlette -->
<g id="edge3" class="edge">
<title>anyio&#45;&gt;starlette</title><style>.edge>path:hover{stroke-width:8}</style>
<path fill="none" stroke="black" d="M736.99,-657.95C759.39,-646.92 788.15,-627.48 792.71,-599"/>
<path fill="none" stroke="black" d="M792.71,-597C795,-582.67 792.08,-566.85 788.23,-553.87"/>
<polygon fill="#f38f16" stroke="black" points="791.48,-552.56 785.02,-544.17 784.83,-554.76 791.48,-552.56"/>
</g>
<!-- app_py -->
<g id="node3" class="node">
<title>app_py</title><style>.edge>path:hover{stroke-width:8}</style>
<ellipse fill="#71623c" stroke="black" cx="1012.71" cy="-18" rx="29.37" ry="18"/>
<text text-anchor="middle" x="1012.71" y="-15.5" font-family="Helvetica,sans-Serif" font-size="10.00" fill="#ffffff">app.py</text>
</g>
<!-- cleanup_intermediate_data -->
<g id="node4" class="node">
<title>cleanup_intermediate_data</title><style>.edge>path:hover{stroke-width:8}</style>
<polygon fill="#b6ad53" stroke="black" points="984.71,-145 981.71,-149 960.71,-149 957.71,-145 834.71,-145 834.71,-109 984.71,-109 984.71,-145"/>
<text text-anchor="middle" x="909.71" y="-124.5" font-family="Helvetica,sans-Serif" font-size="10.00" fill="#000000">cleanup_intermediate_data</text>
</g>
<!-- cleanup_intermediate_data&#45;&gt;app_py -->
<g id="edge4" class="edge">
<title>cleanup_intermediate_data&#45;&gt;app_py</title><style>.edge>path:hover{stroke-width:8}</style>
<path fill="none" stroke="black" d="M984.84,-110.35C1000.82,-102.49 1012.92,-90.7 1012.71,-73"/>
<path fill="none" stroke="black" d="M1012.71,-72C1012.61,-63.68 1012.58,-54.63 1012.58,-46.4"/>
<polygon fill="#b6ad53" stroke="black" points="1016.08,-46.19 1012.6,-36.19 1009.08,-46.18 1016.08,-46.19"/>
</g>
<!-- fastapi -->
<g id="node5" class="node">
<title>fastapi</title><style>.edge>path:hover{stroke-width:8}</style>
<polygon fill="#ccdf0b" stroke="black" points="798.71,-472 795.71,-476 774.71,-476 771.71,-472 744.71,-472 744.71,-436 798.71,-436 798.71,-472"/>
<text text-anchor="middle" x="771.71" y="-451.5" font-family="Helvetica,sans-Serif" font-size="10.00" fill="#000000">fastapi</text>
</g>
<!-- fastapi&#45;&gt;gradio -->
<g id="edge5" class="edge">
<title>fastapi&#45;&gt;gradio</title><style>.edge>path:hover{stroke-width:8}</style>
<path fill="none" stroke="black" d="M744.53,-441.17C711.51,-426.7 659.77,-403.65 656.71,-400"/>
</g>
<!-- ffmpy -->
<g id="node6" class="node">
<title>ffmpy</title><style>.edge>path:hover{stroke-width:8}</style>
<polygon fill="#a6ce3b" stroke="black" points="1180.71,-472 1177.71,-476 1156.71,-476 1153.71,-472 1126.71,-472 1126.71,-436 1180.71,-436 1180.71,-472"/>
<text text-anchor="middle" x="1153.71" y="-451.5" font-family="Helvetica,sans-Serif" font-size="10.00" fill="#000000">ffmpy</text>
</g>
<!-- ffmpy&#45;&gt;gradio -->
<g id="edge6" class="edge">
<title>ffmpy&#45;&gt;gradio</title><style>.edge>path:hover{stroke-width:8}</style>
<path fill="none" stroke="black" d="M1138.71,-435.51C1128.35,-424.25 1113.77,-409.91 1098.71,-400"/>
</g>
<!-- fixed_directory_manager -->
<g id="node7" class="node">
<title>fixed_directory_manager</title><style>.edge>path:hover{stroke-width:8}</style>
<polygon fill="#8ac247" stroke="black" points="1102.21,-363 1099.21,-367 1078.21,-367 1075.21,-363 965.21,-363 965.21,-327 1102.21,-327 1102.21,-363"/>
<text text-anchor="middle" x="1033.71" y="-342.5" font-family="Helvetica,sans-Serif" font-size="10.00" fill="#000000">fixed_directory_manager</text>
</g>
<!-- fixed_directory_manager&#45;&gt;app_py -->
<g id="edge7" class="edge">
<title>fixed_directory_manager&#45;&gt;app_py</title><style>.edge>path:hover{stroke-width:8}</style>
<path fill="none" stroke="black" d="M1000.18,-326.85C987.94,-318.15 976.6,-306.17 974.71,-291"/>
<path fill="none" stroke="black" d="M974.71,-290C971.8,-266.62 967.65,-259.47 974.71,-237"/>
</g>
<!-- step_modules -->
<g id="node27" class="node">
<title>step_modules</title><style>.edge>path:hover{stroke-width:8}</style>
<polygon fill="#a147c2" stroke="black" points="1088.21,-254 1085.21,-258 1064.21,-258 1061.21,-254 1003.21,-254 1003.21,-218 1088.21,-218 1088.21,-254"/>
<text text-anchor="middle" x="1045.71" y="-233.5" font-family="Helvetica,sans-Serif" font-size="10.00" fill="#ffffff">step_modules</text>
</g>
<!-- fixed_directory_manager&#45;&gt;step_modules -->
<g id="edge8" class="edge">
<title>fixed_directory_manager&#45;&gt;step_modules</title><style>.edge>path:hover{stroke-width:8}</style>
<path fill="none" stroke="black" d="M974.71,-290C972.93,-275.74 981.91,-264.83 994.03,-256.72"/>
<polygon fill="#8ac247" stroke="black" points="995.98,-259.63 1002.83,-251.55 992.43,-253.6 995.98,-259.63"/>
</g>
<!-- gradio&#45;&gt;app_py -->
<g id="edge9" class="edge">
<title>gradio&#45;&gt;app_py</title><style>.edge>path:hover{stroke-width:8}</style>
<path fill="none" stroke="black" d="M222.98,-343.02C358.25,-337.82 951.51,-310.83 974.71,-237"/>
<path fill="none" stroke="black" d="M974.71,-235C985.87,-212.37 1008.5,-152.88 1012.71,-128"/>
<path fill="none" stroke="black" d="M1012.71,-126C1014.42,-102.51 1013,-96.55 1012.71,-73"/>
</g>
<!-- gradio_client -->
<g id="node9" class="node">
<title>gradio_client</title><style>.edge>path:hover{stroke-width:8}</style>
<polygon fill="blue" stroke="black" points="235.71,-254 232.71,-258 211.71,-258 208.71,-254 155.71,-254 155.71,-218 235.71,-218 235.71,-254"/>
<text text-anchor="middle" x="195.71" y="-233.5" font-family="Helvetica,sans-Serif" font-size="10.00" fill="white">gradio_client</text>
</g>
<!-- gradio&#45;&gt;gradio_client -->
<g id="edge10" class="edge">
<title>gradio&#45;&gt;gradio_client</title><style>.edge>path:hover{stroke-width:8}</style>
<path fill="none" stroke="black" d="M195.71,-316.61C195.71,-300.61 195.71,-280.49 195.71,-264.48"/>
<polygon fill="blue" stroke="black" points="192.21,-316.81 195.71,-326.81 199.21,-316.81 192.21,-316.81"/>
<polygon fill="blue" stroke="black" points="199.21,-264.15 195.71,-254.15 192.21,-264.15 199.21,-264.15"/>
</g>
<!-- groovy -->
<g id="node10" class="node">
<title>groovy</title><style>.edge>path:hover{stroke-width:8}</style>
<polygon fill="#40c040" stroke="black" points="232.71,-472 229.71,-476 208.71,-476 205.71,-472 178.71,-472 178.71,-436 232.71,-436 232.71,-472"/>
<text text-anchor="middle" x="205.71" y="-451.5" font-family="Helvetica,sans-Serif" font-size="10.00" fill="#000000">groovy</text>
</g>
<!-- groovy&#45;&gt;gradio -->
<g id="edge12" class="edge">
<title>groovy&#45;&gt;gradio</title><style>.edge>path:hover{stroke-width:8}</style>
<path fill="none" stroke="black" d="M190.79,-435.88C183.8,-425.97 177.28,-412.93 178.71,-400"/>
</g>
<!-- httpx -->
<g id="node11" class="node">
<title>httpx</title><style>.edge>path:hover{stroke-width:8}</style>
<polygon fill="#10f93a" stroke="black" points="654.71,-544 651.71,-548 630.71,-548 627.71,-544 600.71,-544 600.71,-508 654.71,-508 654.71,-544"/>
<text text-anchor="middle" x="627.71" y="-523.5" font-family="Helvetica,sans-Serif" font-size="10.00" fill="#000000">httpx</text>
</g>
<!-- httpx&#45;&gt;gradio -->
<g id="edge13" class="edge">
<title>httpx&#45;&gt;gradio</title><style>.edge>path:hover{stroke-width:8}</style>
<path fill="none" stroke="black" d="M654.95,-510.54C682.08,-495.16 719.35,-470.9 716.71,-455"/>
<path fill="none" stroke="black" d="M716.71,-453C710.87,-417.9 679.58,-427.25 656.71,-400"/>
</g>
<!-- httpx&#45;&gt;gradio_client -->
<g id="edge14" class="edge">
<title>httpx&#45;&gt;gradio_client</title><style>.edge>path:hover{stroke-width:8}</style>
<path fill="none" stroke="black" d="M600.43,-518.57C562.62,-509.43 492.32,-491.6 433.71,-472 400.1,-460.76 138.02,-381.34 140.71,-346"/>
</g>
<!-- safehttpx -->
<g id="node25" class="node">
<title>safehttpx</title><style>.edge>path:hover{stroke-width:8}</style>
<polygon fill="#724cb3" stroke="black" points="688.21,-472 685.21,-476 664.21,-476 661.21,-472 625.21,-472 625.21,-436 688.21,-436 688.21,-472"/>
<text text-anchor="middle" x="656.71" y="-451.5" font-family="Helvetica,sans-Serif" font-size="10.00" fill="#ffffff">safehttpx</text>
</g>
<!-- httpx&#45;&gt;safehttpx -->
<g id="edge15" class="edge">
<title>httpx&#45;&gt;safehttpx</title><style>.edge>path:hover{stroke-width:8}</style>
<path fill="none" stroke="black" d="M634.88,-507.7C638.14,-499.81 642.08,-490.3 645.71,-481.55"/>
<polygon fill="#10f93a" stroke="black" points="649.03,-482.68 649.62,-472.1 642.56,-480 649.03,-482.68"/>
</g>
<!-- huggingface_hub -->
<g id="node12" class="node">
<title>huggingface_hub</title><style>.edge>path:hover{stroke-width:8}</style>
<polygon fill="#06f95e" stroke="black" points="130.71,-688 127.71,-692 106.71,-692 103.71,-688 30.71,-688 30.71,-652 130.71,-652 130.71,-688"/>
<text text-anchor="middle" x="80.71" y="-667.5" font-family="Helvetica,sans-Serif" font-size="10.00" fill="#000000">huggingface_hub</text>
</g>
<!-- huggingface_hub&#45;&gt;gradio -->
<g id="edge16" class="edge">
<title>huggingface_hub&#45;&gt;gradio</title><style>.edge>path:hover{stroke-width:8}</style>
<path fill="none" stroke="black" d="M140.71,-399C149.93,-389.48 160.35,-379.31 169.61,-370.45"/>
<polygon fill="#06f95e" stroke="black" points="172.23,-372.78 177.07,-363.36 167.41,-367.71 172.23,-372.78"/>
</g>
<!-- huggingface_hub&#45;&gt;gradio_client -->
<g id="edge17" class="edge">
<title>huggingface_hub&#45;&gt;gradio_client</title><style>.edge>path:hover{stroke-width:8}</style>
<path fill="none" stroke="black" d="M64.59,-651.82C53.77,-638.5 41.37,-619 40.71,-599"/>
<path fill="none" stroke="black" d="M40.71,-597C38.33,-524.99 16.97,-494.01 59.71,-436 83.08,-404.28 113.3,-428.29 140.71,-400"/>
<path fill="none" stroke="black" d="M140.71,-399C156.71,-381.71 139.56,-369.53 140.71,-346"/>
</g>
<!-- transformers -->
<g id="node28" class="node">
<title>transformers</title><style>.edge>path:hover{stroke-width:8}</style>
<polygon fill="blue" stroke="black" points="148.71,-544 145.71,-548 124.71,-548 121.71,-544 68.71,-544 68.71,-508 148.71,-508 148.71,-544"/>
<text text-anchor="middle" x="108.71" y="-523.5" font-family="Helvetica,sans-Serif" font-size="10.00" fill="white">transformers</text>
</g>
<!-- huggingface_hub&#45;&gt;transformers -->
<g id="edge18" class="edge">
<title>huggingface_hub&#45;&gt;transformers</title><style>.edge>path:hover{stroke-width:8}</style>
<path fill="none" stroke="black" d="M40.71,-597C40.08,-577.85 53.27,-561.97 68.19,-550.19"/>
<polygon fill="#06f95e" stroke="black" points="70.56,-552.8 76.59,-544.08 66.44,-547.14 70.56,-552.8"/>
</g>
<!-- IPython -->
<g id="node13" class="node">
<title>IPython</title><style>.edge>path:hover{stroke-width:8}</style>
<polygon fill="blue" stroke="black" points="977.71,-760 974.71,-764 953.71,-764 950.71,-760 923.71,-760 923.71,-724 977.71,-724 977.71,-760"/>
<text text-anchor="middle" x="950.71" y="-739.5" font-family="Helvetica,sans-Serif" font-size="10.00" fill="white">IPython</text>
</g>
<!-- IPython&#45;&gt;gradio -->
<g id="edge19" class="edge">
<title>IPython&#45;&gt;gradio</title><style>.edge>path:hover{stroke-width:8}</style>
<path fill="none" stroke="black" d="M932.75,-723.83C910.37,-701.31 872.78,-659.52 853.71,-616 824.58,-549.55 870.14,-513.12 826.71,-455"/>
</g>
<!-- matplotlib -->
<g id="node16" class="node">
<title>matplotlib</title><style>.edge>path:hover{stroke-width:8}</style>
<polygon fill="blue" stroke="black" points="1070.21,-472 1067.21,-476 1046.21,-476 1043.21,-472 1003.21,-472 1003.21,-436 1070.21,-436 1070.21,-472"/>
<text text-anchor="middle" x="1036.71" y="-451.5" font-family="Helvetica,sans-Serif" font-size="10.00" fill="white">matplotlib</text>
</g>
<!-- IPython&#45;&gt;matplotlib -->
<g id="edge20" class="edge">
<title>IPython&#45;&gt;matplotlib</title><style>.edge>path:hover{stroke-width:8}</style>
<path fill="none" stroke="black" d="M1066.71,-669C1079.63,-630.67 1060.04,-618.52 1047.71,-580 1039.88,-555.55 1021.42,-552.47 1024.71,-527"/>
</g>
<!-- PIL -->
<g id="node20" class="node">
<title>PIL</title><style>.edge>path:hover{stroke-width:8}</style>
<polygon fill="#f93206" stroke="black" points="1038.71,-616 1035.71,-620 1014.71,-620 1011.71,-616 984.71,-616 984.71,-580 1038.71,-580 1038.71,-616"/>
<text text-anchor="middle" x="1011.71" y="-595.5" font-family="Helvetica,sans-Serif" font-size="10.00" fill="#ffffff">PIL</text>
</g>
<!-- IPython&#45;&gt;PIL -->
<g id="edge21" class="edge">
<title>IPython&#45;&gt;PIL</title><style>.edge>path:hover{stroke-width:8}</style>
<path fill="none" stroke="black" d="M977.93,-735.15C1008.07,-726.89 1054.08,-708.44 1066.71,-671"/>
<path fill="none" stroke="black" d="M1066.71,-669C1072.62,-651.45 1060.96,-635 1046.87,-622.46"/>
<polygon fill="blue" stroke="black" points="1048.84,-619.55 1038.89,-615.91 1044.4,-624.96 1048.84,-619.55"/>
</g>
<!-- jinja2 -->
<g id="node14" class="node">
<title>jinja2</title><style>.edge>path:hover{stroke-width:8}</style>
<polygon fill="#40c085" stroke="black" points="568.71,-472 565.71,-476 544.71,-476 541.71,-472 514.71,-472 514.71,-436 568.71,-436 568.71,-472"/>
<text text-anchor="middle" x="541.71" y="-451.5" font-family="Helvetica,sans-Serif" font-size="10.00" fill="#000000">jinja2</text>
</g>
<!-- jinja2&#45;&gt;gradio -->
<g id="edge22" class="edge">
<title>jinja2&#45;&gt;gradio</title><style>.edge>path:hover{stroke-width:8}</style>
<path fill="none" stroke="black" d="M568.84,-441.25C603.32,-426.21 658.26,-401.85 656.71,-400"/>
</g>
<!-- markupsafe -->
<g id="node15" class="node">
<title>markupsafe</title><style>.edge>path:hover{stroke-width:8}</style>
<polygon fill="#4cb397" stroke="black" points="455.71,-688 452.71,-692 431.71,-692 428.71,-688 381.71,-688 381.71,-652 455.71,-652 455.71,-688"/>
<text text-anchor="middle" x="418.71" y="-667.5" font-family="Helvetica,sans-Serif" font-size="10.00" fill="#000000">markupsafe</text>
</g>
<!-- markupsafe&#45;&gt;gradio -->
<g id="edge23" class="edge">
<title>markupsafe&#45;&gt;gradio</title><style>.edge>path:hover{stroke-width:8}</style>
<path fill="none" stroke="black" d="M413.52,-651.95C401.71,-609.37 377.97,-497.35 433.71,-436 501.22,-361.69 718.73,-478.94 656.71,-400"/>
</g>
<!-- matplotlib&#45;&gt;gradio -->
<g id="edge24" class="edge">
<title>matplotlib&#45;&gt;gradio</title><style>.edge>path:hover{stroke-width:8}</style>
<path fill="none" stroke="black" d="M1046.94,-435.95C1052.14,-424.87 1055.98,-410.57 1048.71,-400"/>
<path fill="none" stroke="black" d="M1048.71,-399C1025.24,-364.92 394.7,-349.98 233.14,-346.71"/>
<polygon fill="blue" stroke="black" points="232.82,-343.2 222.76,-346.5 232.69,-350.2 232.82,-343.2"/>
</g>
<!-- trimesh -->
<g id="node29" class="node">
<title>trimesh</title><style>.edge>path:hover{stroke-width:8}</style>
<polygon fill="blue" stroke="black" points="1197.71,-363 1194.71,-367 1173.71,-367 1170.71,-363 1143.71,-363 1143.71,-327 1197.71,-327 1197.71,-363"/>
<text text-anchor="middle" x="1170.71" y="-342.5" font-family="Helvetica,sans-Serif" font-size="10.00" fill="white">trimesh</text>
</g>
<!-- matplotlib&#45;&gt;trimesh -->
<g id="edge25" class="edge">
<title>matplotlib&#45;&gt;trimesh</title><style>.edge>path:hover{stroke-width:8}</style>
<path fill="none" stroke="black" d="M1048.71,-399C1043.28,-391.12 1095.99,-371.24 1133.85,-358.19"/>
<polygon fill="blue" stroke="black" points="1135.25,-361.41 1143.59,-354.87 1133,-354.78 1135.25,-361.41"/>
</g>
<!-- numpy -->
<g id="node17" class="node">
<title>numpy</title><style>.edge>path:hover{stroke-width:8}</style>
<polygon fill="blue" stroke="black" points="1186.71,-616 1183.71,-620 1162.71,-620 1159.71,-616 1132.71,-616 1132.71,-580 1186.71,-580 1186.71,-616"/>
<text text-anchor="middle" x="1159.71" y="-595.5" font-family="Helvetica,sans-Serif" font-size="10.00" fill="white">numpy</text>
</g>
<!-- numpy&#45;&gt;gradio -->
<g id="edge26" class="edge">
<title>numpy&#45;&gt;gradio</title><style>.edge>path:hover{stroke-width:8}</style>
<path fill="none" stroke="black" d="M1169.86,-579.73C1184.21,-553.64 1208.71,-502.2 1208.71,-455"/>
<path fill="none" stroke="black" d="M1208.71,-453C1211.68,-424.17 1195.62,-414.82 1170.71,-400"/>
<path fill="none" stroke="black" d="M1170.71,-399C1089.05,-350.43 402.65,-346.28 233.34,-346"/>
<polygon fill="blue" stroke="black" points="233.18,-342.5 223.17,-345.99 233.17,-349.5 233.18,-342.5"/>
</g>
<!-- numpy&#45;&gt;matplotlib -->
<g id="edge27" class="edge">
<title>numpy&#45;&gt;matplotlib</title><style>.edge>path:hover{stroke-width:8}</style>
<path fill="none" stroke="black" d="M1132.61,-589.12C1092.32,-576.57 1021.61,-551.02 1024.71,-527"/>
</g>
<!-- numpy&#45;&gt;step_modules -->
<g id="edge28" class="edge">
<title>numpy&#45;&gt;step_modules</title><style>.edge>path:hover{stroke-width:8}</style>
<path fill="none" stroke="black" d="M1208.71,-453C1211.68,-424.17 1241.87,-428.58 1246.71,-400"/>
<path fill="none" stroke="black" d="M1246.71,-399C1254.72,-351.67 1263.1,-336.11 1246.71,-291"/>
</g>
<!-- numpy&#45;&gt;trimesh -->
<g id="edge29" class="edge">
<title>numpy&#45;&gt;trimesh</title><style>.edge>path:hover{stroke-width:8}</style>
<path fill="none" stroke="black" d="M1170.71,-399C1162.05,-393.85 1160.8,-383.41 1162.2,-373.14"/>
<polygon fill="blue" stroke="black" points="1165.67,-373.65 1164.31,-363.14 1158.82,-372.2 1165.67,-373.65"/>
</g>
<!-- orjson -->
<g id="node18" class="node">
<title>orjson</title><style>.edge>path:hover{stroke-width:8}</style>
<polygon fill="#2facdb" stroke="black" points="764.71,-616 761.71,-620 740.71,-620 737.71,-616 710.71,-616 710.71,-580 764.71,-580 764.71,-616"/>
<text text-anchor="middle" x="737.71" y="-595.5" font-family="Helvetica,sans-Serif" font-size="10.00" fill="#000000">orjson</text>
</g>
<!-- orjson&#45;&gt;fastapi -->
<g id="edge30" class="edge">
<title>orjson&#45;&gt;fastapi</title><style>.edge>path:hover{stroke-width:8}</style>
<path fill="none" stroke="black" d="M720.71,-525C721.44,-507.58 731.97,-491.58 743.27,-479.29"/>
<polygon fill="#2facdb" stroke="black" points="745.79,-481.71 750.32,-472.14 740.81,-476.8 745.79,-481.71"/>
</g>
<!-- orjson&#45;&gt;gradio -->
<g id="edge31" class="edge">
<title>orjson&#45;&gt;gradio</title><style>.edge>path:hover{stroke-width:8}</style>
<path fill="none" stroke="black" d="M730.67,-579.73C725.66,-565.72 719.94,-545.37 720.71,-527"/>
<path fill="none" stroke="black" d="M720.71,-525C722.01,-493.87 721.82,-485.74 716.71,-455"/>
</g>
<!-- packaging -->
<g id="node19" class="node">
<title>packaging</title><style>.edge>path:hover{stroke-width:8}</style>
<polygon fill="#2f8cdb" stroke="black" points="928.71,-616 925.71,-620 904.71,-620 901.71,-616 862.71,-616 862.71,-580 928.71,-580 928.71,-616"/>
<text text-anchor="middle" x="895.71" y="-595.5" font-family="Helvetica,sans-Serif" font-size="10.00" fill="#ffffff">packaging</text>
</g>
<!-- packaging&#45;&gt;gradio -->
<g id="edge32" class="edge">
<title>packaging&#45;&gt;gradio</title><style>.edge>path:hover{stroke-width:8}</style>
<path fill="none" stroke="black" d="M887.69,-579.92C881.77,-566.03 874.44,-545.72 872.71,-527"/>
<path fill="none" stroke="black" d="M872.71,-525C869.27,-487.93 848.99,-484.82 826.71,-455"/>
</g>
<!-- packaging&#45;&gt;gradio_client -->
<g id="edge33" class="edge">
<title>packaging&#45;&gt;gradio_client</title><style>.edge>path:hover{stroke-width:8}</style>
<path fill="none" stroke="black" d="M872.71,-525C869.86,-494.23 903.41,-499.39 917.71,-472 933.02,-442.66 936.71,-433.1 936.71,-400 936.71,-400 936.71,-400 936.71,-344 936.71,-274.09 413.32,-246.11 246.29,-238.96"/>
<polygon fill="#2f8cdb" stroke="black" points="245.95,-235.45 235.81,-238.52 245.65,-242.44 245.95,-235.45"/>
</g>
<!-- packaging&#45;&gt;matplotlib -->
<g id="edge34" class="edge">
<title>packaging&#45;&gt;matplotlib</title><style>.edge>path:hover{stroke-width:8}</style>
<path fill="none" stroke="black" d="M928.8,-582.4C966.56,-565.25 1023.32,-537.77 1024.71,-527"/>
<path fill="none" stroke="black" d="M1024.71,-525C1026.53,-510.86 1029.16,-495.21 1031.49,-482.31"/>
<polygon fill="#2f8cdb" stroke="black" points="1034.98,-482.67 1033.35,-472.2 1028.09,-481.4 1034.98,-482.67"/>
</g>
<!-- PIL&#45;&gt;gradio -->
<g id="edge35" class="edge">
<title>PIL&#45;&gt;gradio</title><style>.edge>path:hover{stroke-width:8}</style>
<path fill="none" stroke="black" d="M1007.17,-579.91C997.25,-546.14 970.16,-471.1 917.71,-436 820.39,-370.88 731.99,-489.69 656.71,-400"/>
</g>
<!-- PIL&#45;&gt;matplotlib -->
<g id="edge36" class="edge">
<title>PIL&#45;&gt;matplotlib</title><style>.edge>path:hover{stroke-width:8}</style>
<path fill="none" stroke="black" d="M1015.45,-579.82C1018.39,-565.7 1022.37,-545.14 1024.71,-527"/>
</g>
<!-- pydantic -->
<g id="node21" class="node">
<title>pydantic</title><style>.edge>path:hover{stroke-width:8}</style>
<polygon fill="blue" stroke="black" points="310.21,-472 307.21,-476 286.21,-476 283.21,-472 251.21,-472 251.21,-436 310.21,-436 310.21,-472"/>
<text text-anchor="middle" x="280.71" y="-451.5" font-family="Helvetica,sans-Serif" font-size="10.00" fill="white">pydantic</text>
</g>
<!-- pydantic&#45;&gt;gradio -->
<g id="edge37" class="edge">
<title>pydantic&#45;&gt;gradio</title><style>.edge>path:hover{stroke-width:8}</style>
<path fill="none" stroke="black" d="M251.03,-439.22C220.76,-424.93 178.26,-404.09 178.71,-400"/>
</g>
<!-- pydantic_core -->
<g id="node22" class="node">
<title>pydantic_core</title><style>.edge>path:hover{stroke-width:8}</style>
<polygon fill="blue" stroke="black" points="600.21,-616 597.21,-620 576.21,-620 573.21,-616 515.21,-616 515.21,-580 600.21,-580 600.21,-616"/>
<text text-anchor="middle" x="557.71" y="-595.5" font-family="Helvetica,sans-Serif" font-size="10.00" fill="white">pydantic_core</text>
</g>
<!-- pydantic_core&#45;&gt;gradio -->
<g id="edge38" class="edge">
<title>pydantic_core&#45;&gt;gradio</title><style>.edge>path:hover{stroke-width:8}</style>
<path fill="none" stroke="black" d="M557.35,-579.98C557.7,-550.41 562.79,-489.42 596.71,-455"/>
</g>
<!-- pydantic_core&#45;&gt;pydantic -->
<g id="edge39" class="edge">
<title>pydantic_core&#45;&gt;pydantic</title><style>.edge>path:hover{stroke-width:8}</style>
<path fill="none" stroke="black" d="M515.02,-580.05C491.09,-570.19 460.89,-557.15 434.71,-544 393.27,-523.19 347.45,-496.17 316.65,-477.38"/>
<polygon fill="blue" stroke="black" points="318.35,-474.31 307.99,-472.07 314.69,-480.28 318.35,-474.31"/>
</g>
<!-- pydub -->
<g id="node23" class="node">
<title>pydub</title><style>.edge>path:hover{stroke-width:8}</style>
<polygon fill="#4747c2" stroke="black" points="908.71,-472 905.71,-476 884.71,-476 881.71,-472 854.71,-472 854.71,-436 908.71,-436 908.71,-472"/>
<text text-anchor="middle" x="881.71" y="-451.5" font-family="Helvetica,sans-Serif" font-size="10.00" fill="#ffffff">pydub</text>
</g>
<!-- pydub&#45;&gt;gradio -->
<g id="edge40" class="edge">
<title>pydub&#45;&gt;gradio</title><style>.edge>path:hover{stroke-width:8}</style>
<path fill="none" stroke="black" d="M854.64,-440.89C850.04,-439.09 845.28,-437.38 840.71,-436 760.93,-411.92 710.28,-463.83 656.71,-400"/>
</g>
<!-- python_multipart -->
<g id="node24" class="node">
<title>python_multipart</title><style>.edge>path:hover{stroke-width:8}</style>
<polygon fill="#5740c0" stroke="black" points="544.21,-544 541.21,-548 520.21,-548 517.21,-544 443.21,-544 443.21,-508 544.21,-508 544.21,-544"/>
<text text-anchor="middle" x="493.71" y="-523.5" font-family="Helvetica,sans-Serif" font-size="10.00" fill="#ffffff">python_multipart</text>
</g>
<!-- python_multipart&#45;&gt;gradio -->
<g id="edge41" class="edge">
<title>python_multipart&#45;&gt;gradio</title><style>.edge>path:hover{stroke-width:8}</style>
<path fill="none" stroke="black" d="M525.37,-507.91C547.06,-495.2 575.61,-476.41 596.71,-455"/>
<path fill="none" stroke="black" d="M596.71,-453C598.27,-451.42 658.14,-401.7 656.71,-400"/>
</g>
<!-- safehttpx&#45;&gt;gradio -->
<g id="edge42" class="edge">
<title>safehttpx&#45;&gt;gradio</title><style>.edge>path:hover{stroke-width:8}</style>
<path fill="none" stroke="black" d="M661.91,-435.8C664.23,-424.37 664.87,-409.73 656.71,-400"/>
</g>
<!-- starlette&#45;&gt;fastapi -->
<g id="edge43" class="edge">
<title>starlette&#45;&gt;fastapi</title><style>.edge>path:hover{stroke-width:8}</style>
<path fill="none" stroke="black" d="M776.22,-507.7C775.56,-499.98 774.77,-490.71 774.03,-482.11"/>
<polygon fill="#8f10f9" stroke="black" points="777.51,-481.77 773.17,-472.1 770.54,-482.37 777.51,-481.77"/>
</g>
<!-- starlette&#45;&gt;gradio -->
<g id="edge44" class="edge">
<title>starlette&#45;&gt;gradio</title><style>.edge>path:hover{stroke-width:8}</style>
<path fill="none" stroke="black" d="M803.17,-507.81C821.17,-493.51 839.94,-472.7 826.71,-455"/>
<path fill="none" stroke="black" d="M826.71,-453C779.33,-389.61 707.59,-460.62 656.71,-400"/>
</g>
<!-- step_modules&#45;&gt;app_py -->
<g id="edge45" class="edge">
<title>step_modules&#45;&gt;app_py</title><style>.edge>path:hover{stroke-width:8}</style>
<path fill="none" stroke="black" d="M1027.2,-217.91C1018.85,-208.2 1011.15,-195.35 1012.71,-182"/>
<path fill="none" stroke="black" d="M1012.71,-181C1015.43,-157.6 1008.78,-151.23 1012.71,-128"/>
</g>
<!-- unified_pipeline_orchestrator -->
<g id="node31" class="node">
<title>unified_pipeline_orchestrator</title><style>.edge>path:hover{stroke-width:8}</style>
<polygon fill="#8f3d6a" stroke="black" points="1198.71,-145 1195.71,-149 1174.71,-149 1171.71,-145 1040.71,-145 1040.71,-109 1198.71,-109 1198.71,-145"/>
<text text-anchor="middle" x="1119.71" y="-124.5" font-family="Helvetica,sans-Serif" font-size="10.00" fill="#ffffff">unified_pipeline_orchestrator</text>
</g>
<!-- step_modules&#45;&gt;unified_pipeline_orchestrator -->
<g id="edge46" class="edge">
<title>step_modules&#45;&gt;unified_pipeline_orchestrator</title><style>.edge>path:hover{stroke-width:8}</style>
<path fill="none" stroke="black" d="M1012.71,-181C1014.24,-167.84 1021.68,-157.95 1031.97,-150.51"/>
<polygon fill="#a147c2" stroke="black" points="1034.12,-153.3 1040.79,-145.06 1030.44,-147.34 1034.12,-153.3"/>
</g>
<!-- transformers&#45;&gt;gradio -->
<g id="edge47" class="edge">
<title>transformers&#45;&gt;gradio</title><style>.edge>path:hover{stroke-width:8}</style>
<path fill="none" stroke="black" d="M124.19,-507.98C143.33,-485.3 173.96,-443.02 178.71,-400"/>
</g>
<!-- trimesh&#45;&gt;step_modules -->
<g id="edge48" class="edge">
<title>trimesh&#45;&gt;step_modules</title><style>.edge>path:hover{stroke-width:8}</style>
<path fill="none" stroke="black" d="M1197.99,-337.58C1223.21,-330.03 1255.55,-315.34 1246.71,-291"/>
<path fill="none" stroke="black" d="M1246.71,-290C1236.47,-261.82 1154.84,-247.89 1098.81,-241.59"/>
<polygon fill="blue" stroke="black" points="1098.99,-238.09 1088.67,-240.5 1098.24,-245.05 1098.99,-238.09"/>
</g>
<!-- typing_extensions -->
<g id="node30" class="node">
<title>typing_extensions</title><style>.edge>path:hover{stroke-width:8}</style>
<polygon fill="#f910ba" stroke="black" points="505.71,-760 502.71,-764 481.71,-764 478.71,-760 399.71,-760 399.71,-724 505.71,-724 505.71,-760"/>
<text text-anchor="middle" x="452.71" y="-739.5" font-family="Helvetica,sans-Serif" font-size="10.00" fill="#ffffff">typing_extensions</text>
</g>
<!-- typing_extensions&#45;&gt;gradio -->
<g id="edge49" class="edge">
<title>typing_extensions&#45;&gt;gradio</title><style>.edge>path:hover{stroke-width:8}</style>
<path fill="none" stroke="black" d="M338.71,-525C327.15,-476.3 364.46,-461.19 407.71,-436 504.33,-379.72 726.37,-487.47 656.71,-400"/>
<path fill="none" stroke="black" d="M656.71,-399C629.31,-366.9 337.87,-351.84 233.02,-347.43"/>
<polygon fill="#f910ba" stroke="black" points="233.03,-343.93 222.9,-347.01 232.74,-350.92 233.03,-343.93"/>
</g>
<!-- typing_extensions&#45;&gt;gradio_client -->
<g id="edge50" class="edge">
<title>typing_extensions&#45;&gt;gradio_client</title><style>.edge>path:hover{stroke-width:8}</style>
<path fill="none" stroke="black" d="M399.4,-741.87C296.48,-742.38 75.78,-737.51 21.71,-688 -8.12,-660.68 2.71,-639.45 2.71,-599 2.71,-599 2.71,-599 2.71,-525 2.71,-482.66 12.41,-470.68 36.71,-436 71.78,-385.94 137.73,-407.05 140.71,-346"/>
<path fill="none" stroke="black" d="M140.71,-344C137.66,-313.49 156.19,-282.8 172.55,-262.15"/>
<polygon fill="#f910ba" stroke="black" points="175.44,-264.15 179.13,-254.22 170.05,-259.68 175.44,-264.15"/>
</g>
<!-- typing_extensions&#45;&gt;markupsafe -->
<g id="edge51" class="edge">
<title>typing_extensions&#45;&gt;markupsafe</title><style>.edge>path:hover{stroke-width:8}</style>
<path fill="none" stroke="black" d="M444.3,-723.7C440.43,-715.73 435.76,-706.1 431.46,-697.26"/>
<polygon fill="#f910ba" stroke="black" points="434.53,-695.57 427.02,-688.1 428.24,-698.63 434.53,-695.57"/>
</g>
<!-- typing_extensions&#45;&gt;matplotlib -->
<g id="edge52" class="edge">
<title>typing_extensions&#45;&gt;matplotlib</title><style>.edge>path:hover{stroke-width:8}</style>
<path fill="none" stroke="black" d="M505.75,-739.16C600.6,-733.48 802.06,-710.3 937.71,-616 943.38,-612.05 1023.71,-533.84 1024.71,-527"/>
</g>
<!-- typing_extensions&#45;&gt;pydantic -->
<g id="edge53" class="edge">
<title>typing_extensions&#45;&gt;pydantic</title><style>.edge>path:hover{stroke-width:8}</style>
<path fill="none" stroke="black" d="M414.79,-723.97C399.52,-715.29 383.1,-703.3 372.71,-688 331.6,-627.51 352.62,-598.8 338.71,-527"/>
<path fill="none" stroke="black" d="M338.71,-525C334.51,-507.32 322.36,-491.39 310.26,-479.21"/>
<polygon fill="#f910ba" stroke="black" points="312.47,-476.47 302.8,-472.12 307.64,-481.55 312.47,-476.47"/>
</g>
<!-- typing_extensions&#45;&gt;pydantic_core -->
<g id="edge54" class="edge">
<title>typing_extensions&#45;&gt;pydantic_core</title><style>.edge>path:hover{stroke-width:8}</style>
<path fill="none" stroke="black" d="M486.71,-669C495.47,-650.85 510.95,-634.73 525.22,-622.54"/>
<polygon fill="#f910ba" stroke="black" points="527.46,-625.24 532.98,-616.19 523.02,-619.82 527.46,-625.24"/>
</g>
<!-- typing_extensions&#45;&gt;python_multipart -->
<g id="edge55" class="edge">
<title>typing_extensions&#45;&gt;python_multipart</title><style>.edge>path:hover{stroke-width:8}</style>
<path fill="none" stroke="black" d="M461.12,-723.75C468.01,-709.59 478.02,-689.01 486.71,-671"/>
<path fill="none" stroke="black" d="M486.71,-669C504.38,-632.37 502.21,-584.07 498.41,-554.3"/>
<polygon fill="#f910ba" stroke="black" points="501.85,-553.62 496.97,-544.22 494.92,-554.61 501.85,-553.62"/>
</g>
<!-- typing_extensions&#45;&gt;starlette -->
<g id="edge56" class="edge">
<title>typing_extensions&#45;&gt;starlette</title><style>.edge>path:hover{stroke-width:8}</style>
<path fill="none" stroke="black" d="M505.84,-736.94C579.64,-730.39 708.32,-715.37 745.71,-688 781.8,-661.58 785.64,-643.17 792.71,-599"/>
</g>
<!-- unified_pipeline_orchestrator&#45;&gt;app_py -->
<g id="edge57" class="edge">
<title>unified_pipeline_orchestrator&#45;&gt;app_py</title><style>.edge>path:hover{stroke-width:8}</style>
<path fill="none" stroke="black" d="M1040.55,-110.23C1024.79,-102.38 1012.92,-90.62 1012.71,-73"/>
</g>
<!-- urllib3 -->
<g id="node32" class="node">
<title>urllib3</title><style>.edge>path:hover{stroke-width:8}</style>
<polygon fill="#c0406e" stroke="black" points="122.71,-472 119.71,-476 98.71,-476 95.71,-472 68.71,-472 68.71,-436 122.71,-436 122.71,-472"/>
<text text-anchor="middle" x="95.71" y="-451.5" font-family="Helvetica,sans-Serif" font-size="10.00" fill="#ffffff">urllib3</text>
</g>
<!-- urllib3&#45;&gt;gradio -->
<g id="edge58" class="edge">
<title>urllib3&#45;&gt;gradio</title><style>.edge>path:hover{stroke-width:8}</style>
<path fill="none" stroke="black" d="M123.14,-441.12C146.74,-430.04 177.24,-413.26 178.71,-400"/>
<path fill="none" stroke="black" d="M178.71,-399C179.67,-390.26 182.1,-381.04 184.83,-372.78"/>
<polygon fill="#c0406e" stroke="black" points="188.15,-373.87 188.23,-363.28 181.56,-371.52 188.15,-373.87"/>
</g>
<!-- yaml -->
<g id="node33" class="node">
<title>yaml</title><style>.edge>path:hover{stroke-width:8}</style>
<polygon fill="blue" stroke="black" points="1186.71,-760 1183.71,-764 1162.71,-764 1159.71,-760 1132.71,-760 1132.71,-724 1186.71,-724 1186.71,-760"/>
<text text-anchor="middle" x="1159.71" y="-739.5" font-family="Helvetica,sans-Serif" font-size="10.00" fill="white">yaml</text>
</g>
<!-- yaml&#45;&gt;gradio -->
<g id="edge59" class="edge">
<title>yaml&#45;&gt;gradio</title><style>.edge>path:hover{stroke-width:8}</style>
<path fill="none" stroke="black" d="M1159.93,-723.74C1160.06,-709.57 1160.12,-688.98 1159.71,-671"/>
<path fill="none" stroke="black" d="M1159.71,-669C1159.05,-640.53 1133.63,-642.69 1123.71,-616 1115.29,-593.35 1118.89,-413.28 1098.71,-400"/>
<path fill="none" stroke="black" d="M1098.71,-399C1023.51,-354.26 394.79,-347.25 233.37,-346.19"/>
<polygon fill="blue" stroke="black" points="233.01,-342.68 222.99,-346.12 232.97,-349.68 233.01,-342.68"/>
</g>
<!-- yaml&#45;&gt;numpy -->
<g id="edge60" class="edge">
<title>yaml&#45;&gt;numpy</title><style>.edge>path:hover{stroke-width:8}</style>
<path fill="none" stroke="black" d="M1159.71,-669C1159.71,-654.95 1159.71,-639.31 1159.71,-626.38"/>
<polygon fill="blue" stroke="black" points="1163.21,-626.26 1159.71,-616.26 1156.21,-626.26 1163.21,-626.26"/>
</g>
<!-- yaml&#45;&gt;step_modules -->
<g id="edge61" class="edge">
<title>yaml&#45;&gt;step_modules</title><style>.edge>path:hover{stroke-width:8}</style>
<path fill="none" stroke="black" d="M1246.71,-453C1245.14,-429.5 1241.09,-422.88 1246.71,-400"/>
</g>
<!-- yaml&#45;&gt;trimesh -->
<g id="edge62" class="edge">
<title>yaml&#45;&gt;trimesh</title><style>.edge>path:hover{stroke-width:8}</style>
<path fill="none" stroke="black" d="M1159.71,-669C1159.71,-640.52 1183.28,-641.62 1195.71,-616 1228.47,-548.47 1259.24,-529.01 1246.71,-455"/>
<path fill="none" stroke="black" d="M1246.71,-453C1242.54,-420.13 1218.58,-390.08 1198.66,-370.25"/>
<polygon fill="blue" stroke="black" points="1200.92,-367.56 1191.28,-363.16 1196.07,-372.61 1200.92,-367.56"/>
</g>
</g>
</svg>
