<?xml version="1.0" encoding="UTF-8" standalone="no"?>
<!DOCTYPE svg PUBLIC "-//W3C//DTD SVG 1.1//EN"
 "http://www.w3.org/Graphics/SVG/1.1/DTD/svg11.dtd">
<!-- Generated by graphviz version 2.43.0 (0)
 -->
<!-- Title: G Pages: 1 -->
<svg width="1290pt" height="768pt"
 viewBox="0.00 0.00 1290.40 768.00" xmlns="http://www.w3.org/2000/svg" xmlns:xlink="http://www.w3.org/1999/xlink">
<g id="graph0" class="graph" transform="scale(1 1) rotate(0) translate(4 764)">
<title>G</title><style>.edge>path:hover{stroke-width:8}</style>
<polygon fill="white" stroke="transparent" points="-4,4 -4,-764 1286.4,-764 1286.4,4 -4,4"/>
<!-- aiofiles -->
<g id="node1" class="node">
<title>aiofiles</title><style>.edge>path:hover{stroke-width:8}</style>
<ellipse fill="#cc6b33" stroke="black" cx="479.72" cy="-454" rx="30.72" ry="18"/>
<text text-anchor="middle" x="479.72" y="-451.5" font-family="Helvetica,sans-Serif" font-size="10.00" fill="#000000">aiofiles</text>
</g>
<!-- gradio -->
<g id="node8" class="node">
<title>gradio</title><style>.edge>path:hover{stroke-width:8}</style>
<polygon fill="blue" stroke="black" points="225.72,-363 222.72,-367 201.72,-367 198.72,-363 171.72,-363 171.72,-327 225.72,-327 225.72,-363"/>
<text text-anchor="middle" x="198.72" y="-342.5" font-family="Helvetica,sans-Serif" font-size="10.00" fill="white">gradio</text>
</g>
<!-- aiofiles&#45;&gt;gradio -->
<g id="edge1" class="edge">
<title>aiofiles&#45;&gt;gradio</title><style>.edge>path:hover{stroke-width:8}</style>
<path fill="none" stroke="black" d="M503.14,-442.23C508.52,-439.99 514.26,-437.77 519.72,-436 587.38,-414 720.79,-455.06 675.72,-400"/>
</g>
<!-- anyio -->
<g id="node2" class="node">
<title>anyio</title><style>.edge>path:hover{stroke-width:8}</style>
<ellipse fill="#f38f16" stroke="black" cx="731.72" cy="-670" rx="27" ry="18"/>
<text text-anchor="middle" x="731.72" y="-667.5" font-family="Helvetica,sans-Serif" font-size="10.00" fill="#000000">anyio</text>
</g>
<!-- anyio&#45;&gt;gradio -->
<g id="edge2" class="edge">
<title>anyio&#45;&gt;gradio</title><style>.edge>path:hover{stroke-width:8}</style>
<path fill="none" stroke="black" d="M727.66,-651.93C725.41,-641.6 722.85,-628.12 721.72,-616 717.24,-568.16 718.88,-555.41 726.72,-508 730.69,-483.96 744.69,-479.04 740.72,-455"/>
</g>
<!-- starlette -->
<g id="node26" class="node">
<title>starlette</title><style>.edge>path:hover{stroke-width:8}</style>
<polygon fill="#8f10f9" stroke="black" points="826.72,-544 823.72,-548 802.72,-548 799.72,-544 768.72,-544 768.72,-508 826.72,-508 826.72,-544"/>
<text text-anchor="middle" x="797.72" y="-523.5" font-family="Helvetica,sans-Serif" font-size="10.00" fill="#ffffff">starlette</text>
</g>
<!-- anyio&#45;&gt;starlette -->
<g id="edge3" class="edge">
<title>anyio&#45;&gt;starlette</title><style>.edge>path:hover{stroke-width:8}</style>
<path fill="none" stroke="black" d="M754.43,-660.23C777.43,-649.71 810.23,-629.59 814.72,-599"/>
<path fill="none" stroke="black" d="M814.72,-597C816.83,-582.55 813.48,-566.72 809.21,-553.77"/>
<polygon fill="#f38f16" stroke="black" points="812.39,-552.28 805.67,-544.09 805.81,-554.68 812.39,-552.28"/>
</g>
<!-- app_py -->
<g id="node3" class="node">
<title>app_py</title><style>.edge>path:hover{stroke-width:8}</style>
<ellipse fill="#71623c" stroke="black" cx="1037.72" cy="-18" rx="29.37" ry="18"/>
<text text-anchor="middle" x="1037.72" y="-15.5" font-family="Helvetica,sans-Serif" font-size="10.00" fill="#ffffff">app.py</text>
</g>
<!-- cleanup_intermediate_data -->
<g id="node4" class="node">
<title>cleanup_intermediate_data</title><style>.edge>path:hover{stroke-width:8}</style>
<ellipse fill="#b6ad53" stroke="black" cx="921.72" cy="-127" rx="88.1" ry="18"/>
<text text-anchor="middle" x="921.72" y="-124.5" font-family="Helvetica,sans-Serif" font-size="10.00" fill="#000000">cleanup_intermediate_data</text>
</g>
<!-- cleanup_intermediate_data&#45;&gt;app_py -->
<g id="edge4" class="edge">
<title>cleanup_intermediate_data&#45;&gt;app_py</title><style>.edge>path:hover{stroke-width:8}</style>
<path fill="none" stroke="black" d="M994.89,-116.91C1018.25,-109.59 1038.07,-96.47 1037.72,-73"/>
<path fill="none" stroke="black" d="M1037.72,-72C1037.59,-63.68 1037.55,-54.63 1037.56,-46.4"/>
<polygon fill="#b6ad53" stroke="black" points="1041.06,-46.2 1037.58,-36.19 1034.06,-46.18 1041.06,-46.2"/>
</g>
<!-- fastapi -->
<g id="node5" class="node">
<title>fastapi</title><style>.edge>path:hover{stroke-width:8}</style>
<polygon fill="#ccdf0b" stroke="black" points="822.72,-472 819.72,-476 798.72,-476 795.72,-472 768.72,-472 768.72,-436 822.72,-436 822.72,-472"/>
<text text-anchor="middle" x="795.72" y="-451.5" font-family="Helvetica,sans-Serif" font-size="10.00" fill="#000000">fastapi</text>
</g>
<!-- fastapi&#45;&gt;gradio -->
<g id="edge5" class="edge">
<title>fastapi&#45;&gt;gradio</title><style>.edge>path:hover{stroke-width:8}</style>
<path fill="none" stroke="black" d="M768.52,-441.72C734.1,-427.34 678.88,-403.87 675.72,-400"/>
</g>
<!-- ffmpy -->
<g id="node6" class="node">
<title>ffmpy</title><style>.edge>path:hover{stroke-width:8}</style>
<ellipse fill="#a6ce3b" stroke="black" cx="1179.72" cy="-454" rx="27" ry="18"/>
<text text-anchor="middle" x="1179.72" y="-451.5" font-family="Helvetica,sans-Serif" font-size="10.00" fill="#000000">ffmpy</text>
</g>
<!-- ffmpy&#45;&gt;gradio -->
<g id="edge6" class="edge">
<title>ffmpy&#45;&gt;gradio</title><style>.edge>path:hover{stroke-width:8}</style>
<path fill="none" stroke="black" d="M1166.94,-437.94C1156.51,-426.37 1140.9,-410.63 1124.72,-400"/>
</g>
<!-- fixed_directory_manager -->
<g id="node7" class="node">
<title>fixed_directory_manager</title><style>.edge>path:hover{stroke-width:8}</style>
<ellipse fill="#8ac247" stroke="black" cx="1070.72" cy="-345" rx="80.79" ry="18"/>
<text text-anchor="middle" x="1070.72" y="-342.5" font-family="Helvetica,sans-Serif" font-size="10.00" fill="#000000">fixed_directory_manager</text>
</g>
<!-- fixed_directory_manager&#45;&gt;app_py -->
<g id="edge7" class="edge">
<title>fixed_directory_manager&#45;&gt;app_py</title><style>.edge>path:hover{stroke-width:8}</style>
<path fill="none" stroke="black" d="M1032.14,-329.12C1017.07,-320.69 1002.67,-308.28 999.72,-291"/>
<path fill="none" stroke="black" d="M999.72,-290C995.74,-266.78 992.65,-259.47 999.72,-237"/>
</g>
<!-- step_modules -->
<g id="node27" class="node">
<title>step_modules</title><style>.edge>path:hover{stroke-width:8}</style>
<polygon fill="#a147c2" stroke="black" points="1113.22,-254 1110.22,-258 1089.22,-258 1086.22,-254 1028.22,-254 1028.22,-218 1113.22,-218 1113.22,-254"/>
<text text-anchor="middle" x="1070.72" y="-233.5" font-family="Helvetica,sans-Serif" font-size="10.00" fill="#ffffff">step_modules</text>
</g>
<!-- fixed_directory_manager&#45;&gt;step_modules -->
<g id="edge8" class="edge">
<title>fixed_directory_manager&#45;&gt;step_modules</title><style>.edge>path:hover{stroke-width:8}</style>
<path fill="none" stroke="black" d="M999.72,-290C997.23,-275.45 1006.58,-264.36 1019.25,-256.18"/>
<polygon fill="#8ac247" stroke="black" points="1021.01,-259.21 1027.97,-251.22 1017.54,-253.12 1021.01,-259.21"/>
</g>
<!-- gradio&#45;&gt;app_py -->
<g id="edge9" class="edge">
<title>gradio&#45;&gt;app_py</title><style>.edge>path:hover{stroke-width:8}</style>
<path fill="none" stroke="black" d="M225.85,-343.13C363.16,-338.4 975.82,-313.04 999.72,-237"/>
<path fill="none" stroke="black" d="M999.72,-235C1010.87,-212.37 1033.5,-152.88 1037.72,-128"/>
<path fill="none" stroke="black" d="M1037.72,-126C1039.43,-102.51 1038.08,-96.55 1037.72,-73"/>
</g>
<!-- gradio_client -->
<g id="node9" class="node">
<title>gradio_client</title><style>.edge>path:hover{stroke-width:8}</style>
<polygon fill="blue" stroke="black" points="238.72,-254 235.72,-258 214.72,-258 211.72,-254 158.72,-254 158.72,-218 238.72,-218 238.72,-254"/>
<text text-anchor="middle" x="198.72" y="-233.5" font-family="Helvetica,sans-Serif" font-size="10.00" fill="white">gradio_client</text>
</g>
<!-- gradio&#45;&gt;gradio_client -->
<g id="edge10" class="edge">
<title>gradio&#45;&gt;gradio_client</title><style>.edge>path:hover{stroke-width:8}</style>
<path fill="none" stroke="black" d="M198.72,-316.61C198.72,-300.61 198.72,-280.49 198.72,-264.48"/>
<polygon fill="blue" stroke="black" points="195.22,-316.81 198.72,-326.81 202.22,-316.81 195.22,-316.81"/>
<polygon fill="blue" stroke="black" points="202.22,-264.15 198.72,-254.15 195.22,-264.15 202.22,-264.15"/>
</g>
<!-- groovy -->
<g id="node10" class="node">
<title>groovy</title><style>.edge>path:hover{stroke-width:8}</style>
<ellipse fill="#40c040" stroke="black" cx="209.72" cy="-454" rx="29.37" ry="18"/>
<text text-anchor="middle" x="209.72" y="-451.5" font-family="Helvetica,sans-Serif" font-size="10.00" fill="#000000">groovy</text>
</g>
<!-- groovy&#45;&gt;gradio -->
<g id="edge12" class="edge">
<title>groovy&#45;&gt;gradio</title><style>.edge>path:hover{stroke-width:8}</style>
<path fill="none" stroke="black" d="M195.68,-437.81C187.96,-427.74 180.22,-413.86 181.72,-400"/>
</g>
<!-- httpx -->
<g id="node11" class="node">
<title>httpx</title><style>.edge>path:hover{stroke-width:8}</style>
<ellipse fill="#10f93a" stroke="black" cx="647.72" cy="-526" rx="27" ry="18"/>
<text text-anchor="middle" x="647.72" y="-523.5" font-family="Helvetica,sans-Serif" font-size="10.00" fill="#000000">httpx</text>
</g>
<!-- httpx&#45;&gt;gradio -->
<g id="edge13" class="edge">
<title>httpx&#45;&gt;gradio</title><style>.edge>path:hover{stroke-width:8}</style>
<path fill="none" stroke="black" d="M668.7,-514.65C697.02,-499.96 743.67,-472.84 740.72,-455"/>
<path fill="none" stroke="black" d="M740.72,-453C734.63,-416.22 699.33,-428.84 675.72,-400"/>
</g>
<!-- httpx&#45;&gt;gradio_client -->
<g id="edge14" class="edge">
<title>httpx&#45;&gt;gradio_client</title><style>.edge>path:hover{stroke-width:8}</style>
<path fill="none" stroke="black" d="M622.45,-519.64C583.02,-511.03 504.61,-492.95 439.72,-472 405.7,-461.02 140.79,-381.63 143.72,-346"/>
</g>
<!-- safehttpx -->
<g id="node25" class="node">
<title>safehttpx</title><style>.edge>path:hover{stroke-width:8}</style>
<ellipse fill="#724cb3" stroke="black" cx="675.72" cy="-454" rx="37.17" ry="18"/>
<text text-anchor="middle" x="675.72" y="-451.5" font-family="Helvetica,sans-Serif" font-size="10.00" fill="#ffffff">safehttpx</text>
</g>
<!-- httpx&#45;&gt;safehttpx -->
<g id="edge15" class="edge">
<title>httpx&#45;&gt;safehttpx</title><style>.edge>path:hover{stroke-width:8}</style>
<path fill="none" stroke="black" d="M654.35,-508.41C657.58,-500.34 661.54,-490.43 665.17,-481.35"/>
<polygon fill="#10f93a" stroke="black" points="668.47,-482.54 668.93,-471.96 661.97,-479.94 668.47,-482.54"/>
</g>
<!-- huggingface_hub -->
<g id="node12" class="node">
<title>huggingface_hub</title><style>.edge>path:hover{stroke-width:8}</style>
<polygon fill="#06f95e" stroke="black" points="130.72,-688 127.72,-692 106.72,-692 103.72,-688 30.72,-688 30.72,-652 130.72,-652 130.72,-688"/>
<text text-anchor="middle" x="80.72" y="-667.5" font-family="Helvetica,sans-Serif" font-size="10.00" fill="#000000">huggingface_hub</text>
</g>
<!-- huggingface_hub&#45;&gt;gradio -->
<g id="edge16" class="edge">
<title>huggingface_hub&#45;&gt;gradio</title><style>.edge>path:hover{stroke-width:8}</style>
<path fill="none" stroke="black" d="M143.72,-399C153,-389.53 163.42,-379.37 172.68,-370.51"/>
<polygon fill="#06f95e" stroke="black" points="175.3,-372.84 180.13,-363.41 170.48,-367.78 175.3,-372.84"/>
</g>
<!-- huggingface_hub&#45;&gt;gradio_client -->
<g id="edge17" class="edge">
<title>huggingface_hub&#45;&gt;gradio_client</title><style>.edge>path:hover{stroke-width:8}</style>
<path fill="none" stroke="black" d="M64.6,-651.82C53.78,-638.5 41.37,-619 40.72,-599"/>
<path fill="none" stroke="black" d="M40.72,-597C38.34,-524.99 16.59,-493.72 59.72,-436 84.03,-403.46 115.27,-429 143.72,-400"/>
<path fill="none" stroke="black" d="M143.72,-399C159.84,-381.83 142.35,-369.52 143.72,-346"/>
</g>
<!-- transformers -->
<g id="node28" class="node">
<title>transformers</title><style>.edge>path:hover{stroke-width:8}</style>
<polygon fill="blue" stroke="black" points="148.72,-544 145.72,-548 124.72,-548 121.72,-544 68.72,-544 68.72,-508 148.72,-508 148.72,-544"/>
<text text-anchor="middle" x="108.72" y="-523.5" font-family="Helvetica,sans-Serif" font-size="10.00" fill="white">transformers</text>
</g>
<!-- huggingface_hub&#45;&gt;transformers -->
<g id="edge18" class="edge">
<title>huggingface_hub&#45;&gt;transformers</title><style>.edge>path:hover{stroke-width:8}</style>
<path fill="none" stroke="black" d="M40.72,-597C40.08,-577.85 53.27,-561.97 68.2,-550.19"/>
<polygon fill="#06f95e" stroke="black" points="70.57,-552.8 76.59,-544.08 66.45,-547.14 70.57,-552.8"/>
</g>
<!-- IPython -->
<g id="node13" class="node">
<title>IPython</title><style>.edge>path:hover{stroke-width:8}</style>
<polygon fill="blue" stroke="black" points="997.72,-760 994.72,-764 973.72,-764 970.72,-760 943.72,-760 943.72,-724 997.72,-724 997.72,-760"/>
<text text-anchor="middle" x="970.72" y="-739.5" font-family="Helvetica,sans-Serif" font-size="10.00" fill="white">IPython</text>
</g>
<!-- IPython&#45;&gt;gradio -->
<g id="edge19" class="edge">
<title>IPython&#45;&gt;gradio</title><style>.edge>path:hover{stroke-width:8}</style>
<path fill="none" stroke="black" d="M952.59,-723.9C930.04,-701.46 892.26,-659.75 873.72,-616 845.51,-549.45 892.61,-513.9 850.72,-455"/>
</g>
<!-- matplotlib -->
<g id="node16" class="node">
<title>matplotlib</title><style>.edge>path:hover{stroke-width:8}</style>
<polygon fill="blue" stroke="black" points="1096.22,-472 1093.22,-476 1072.22,-476 1069.22,-472 1029.22,-472 1029.22,-436 1096.22,-436 1096.22,-472"/>
<text text-anchor="middle" x="1062.72" y="-451.5" font-family="Helvetica,sans-Serif" font-size="10.00" fill="white">matplotlib</text>
</g>
<!-- IPython&#45;&gt;matplotlib -->
<g id="edge20" class="edge">
<title>IPython&#45;&gt;matplotlib</title><style>.edge>path:hover{stroke-width:8}</style>
<path fill="none" stroke="black" d="M1086.72,-669C1099.64,-630.67 1078.13,-619.08 1067.72,-580 1061.35,-556.1 1046.55,-551.38 1050.72,-527"/>
</g>
<!-- PIL -->
<g id="node20" class="node">
<title>PIL</title><style>.edge>path:hover{stroke-width:8}</style>
<polygon fill="#f93206" stroke="black" points="1058.72,-616 1055.72,-620 1034.72,-620 1031.72,-616 1004.72,-616 1004.72,-580 1058.72,-580 1058.72,-616"/>
<text text-anchor="middle" x="1031.72" y="-595.5" font-family="Helvetica,sans-Serif" font-size="10.00" fill="#ffffff">PIL</text>
</g>
<!-- IPython&#45;&gt;PIL -->
<g id="edge21" class="edge">
<title>IPython&#45;&gt;PIL</title><style>.edge>path:hover{stroke-width:8}</style>
<path fill="none" stroke="black" d="M997.94,-735.15C1028.08,-726.89 1074.09,-708.44 1086.72,-671"/>
<path fill="none" stroke="black" d="M1086.72,-669C1092.63,-651.45 1080.96,-635 1066.87,-622.46"/>
<polygon fill="blue" stroke="black" points="1068.84,-619.55 1058.89,-615.91 1064.4,-624.96 1068.84,-619.55"/>
</g>
<!-- jinja2 -->
<g id="node14" class="node">
<title>jinja2</title><style>.edge>path:hover{stroke-width:8}</style>
<polygon fill="#40c085" stroke="black" points="582.72,-472 579.72,-476 558.72,-476 555.72,-472 528.72,-472 528.72,-436 582.72,-436 582.72,-472"/>
<text text-anchor="middle" x="555.72" y="-451.5" font-family="Helvetica,sans-Serif" font-size="10.00" fill="#000000">jinja2</text>
</g>
<!-- jinja2&#45;&gt;gradio -->
<g id="edge22" class="edge">
<title>jinja2&#45;&gt;gradio</title><style>.edge>path:hover{stroke-width:8}</style>
<path fill="none" stroke="black" d="M582.79,-441.78C618.68,-426.82 677.32,-401.96 675.72,-400"/>
</g>
<!-- markupsafe -->
<g id="node15" class="node">
<title>markupsafe</title><style>.edge>path:hover{stroke-width:8}</style>
<ellipse fill="#4cb397" stroke="black" cx="423.72" cy="-670" rx="43.62" ry="18"/>
<text text-anchor="middle" x="423.72" y="-667.5" font-family="Helvetica,sans-Serif" font-size="10.00" fill="#000000">markupsafe</text>
</g>
<!-- markupsafe&#45;&gt;gradio -->
<g id="edge23" class="edge">
<title>markupsafe&#45;&gt;gradio</title><style>.edge>path:hover{stroke-width:8}</style>
<path fill="none" stroke="black" d="M418.58,-651.91C406.91,-609.23 383.56,-497.01 439.72,-436 511.57,-357.93 740.2,-484.26 675.72,-400"/>
</g>
<!-- matplotlib&#45;&gt;gradio -->
<g id="edge24" class="edge">
<title>matplotlib&#45;&gt;gradio</title><style>.edge>path:hover{stroke-width:8}</style>
<path fill="none" stroke="black" d="M1072.97,-435.94C1078.17,-424.85 1082.02,-410.55 1074.72,-400"/>
<path fill="none" stroke="black" d="M1074.72,-399C1050.49,-363.98 400.34,-349.7 236.11,-346.65"/>
<polygon fill="blue" stroke="black" points="236.07,-343.15 226.01,-346.46 235.95,-350.15 236.07,-343.15"/>
</g>
<!-- trimesh -->
<g id="node29" class="node">
<title>trimesh</title><style>.edge>path:hover{stroke-width:8}</style>
<polygon fill="blue" stroke="black" points="1223.72,-363 1220.72,-367 1199.72,-367 1196.72,-363 1169.72,-363 1169.72,-327 1223.72,-327 1223.72,-363"/>
<text text-anchor="middle" x="1196.72" y="-342.5" font-family="Helvetica,sans-Serif" font-size="10.00" fill="white">trimesh</text>
</g>
<!-- matplotlib&#45;&gt;trimesh -->
<g id="edge25" class="edge">
<title>matplotlib&#45;&gt;trimesh</title><style>.edge>path:hover{stroke-width:8}</style>
<path fill="none" stroke="black" d="M1074.72,-399C1052.66,-367.12 1114.01,-378.13 1160.32,-362.56"/>
<polygon fill="blue" stroke="black" points="1161.59,-365.82 1169.65,-358.94 1159.06,-359.3 1161.59,-365.82"/>
</g>
<!-- numpy -->
<g id="node17" class="node">
<title>numpy</title><style>.edge>path:hover{stroke-width:8}</style>
<polygon fill="blue" stroke="black" points="1206.72,-616 1203.72,-620 1182.72,-620 1179.72,-616 1152.72,-616 1152.72,-580 1206.72,-580 1206.72,-616"/>
<text text-anchor="middle" x="1179.72" y="-595.5" font-family="Helvetica,sans-Serif" font-size="10.00" fill="white">numpy</text>
</g>
<!-- numpy&#45;&gt;gradio -->
<g id="edge26" class="edge">
<title>numpy&#45;&gt;gradio</title><style>.edge>path:hover{stroke-width:8}</style>
<path fill="none" stroke="black" d="M1191.11,-579.9C1207.22,-554.02 1234.72,-502.85 1234.72,-455"/>
<path fill="none" stroke="black" d="M1234.72,-453C1238.07,-424.21 1221.64,-414.79 1196.72,-400"/>
<path fill="none" stroke="black" d="M1196.72,-399C1112.85,-349.26 406.75,-346.01 235.85,-345.95"/>
<polygon fill="blue" stroke="black" points="235.83,-342.45 225.83,-345.95 235.83,-349.45 235.83,-342.45"/>
</g>
<!-- numpy&#45;&gt;matplotlib -->
<g id="edge27" class="edge">
<title>numpy&#45;&gt;matplotlib</title><style>.edge>path:hover{stroke-width:8}</style>
<path fill="none" stroke="black" d="M1152.63,-588.56C1113.66,-575.59 1046.81,-549.86 1050.72,-527"/>
</g>
<!-- numpy&#45;&gt;step_modules -->
<g id="edge28" class="edge">
<title>numpy&#45;&gt;step_modules</title><style>.edge>path:hover{stroke-width:8}</style>
<path fill="none" stroke="black" d="M1234.72,-453C1238.07,-424.21 1267.88,-428.58 1272.72,-400"/>
<path fill="none" stroke="black" d="M1272.72,-399C1280.73,-351.67 1289.14,-336.1 1272.72,-291"/>
</g>
<!-- numpy&#45;&gt;trimesh -->
<g id="edge29" class="edge">
<title>numpy&#45;&gt;trimesh</title><style>.edge>path:hover{stroke-width:8}</style>
<path fill="none" stroke="black" d="M1196.72,-399C1188.05,-393.86 1186.8,-383.42 1188.2,-373.16"/>
<polygon fill="blue" stroke="black" points="1191.67,-373.66 1190.32,-363.15 1184.82,-372.21 1191.67,-373.66"/>
</g>
<!-- orjson -->
<g id="node18" class="node">
<title>orjson</title><style>.edge>path:hover{stroke-width:8}</style>
<ellipse fill="#2facdb" stroke="black" cx="758.72" cy="-598" rx="27.84" ry="18"/>
<text text-anchor="middle" x="758.72" y="-595.5" font-family="Helvetica,sans-Serif" font-size="10.00" fill="#000000">orjson</text>
</g>
<!-- orjson&#45;&gt;fastapi -->
<g id="edge30" class="edge">
<title>orjson&#45;&gt;fastapi</title><style>.edge>path:hover{stroke-width:8}</style>
<path fill="none" stroke="black" d="M740.72,-525C741.78,-507.24 753.01,-491.3 765.04,-479.13"/>
<polygon fill="#2facdb" stroke="black" points="767.67,-481.46 772.56,-472.06 762.88,-476.37 767.67,-481.46"/>
</g>
<!-- orjson&#45;&gt;gradio -->
<g id="edge31" class="edge">
<title>orjson&#45;&gt;gradio</title><style>.edge>path:hover{stroke-width:8}</style>
<path fill="none" stroke="black" d="M751.43,-580.6C745.96,-566.59 739.59,-545.79 740.72,-527"/>
<path fill="none" stroke="black" d="M740.72,-525C742.58,-493.94 745.79,-485.69 740.72,-455"/>
</g>
<!-- packaging -->
<g id="node19" class="node">
<title>packaging</title><style>.edge>path:hover{stroke-width:8}</style>
<polygon fill="#2f8cdb" stroke="black" points="948.72,-616 945.72,-620 924.72,-620 921.72,-616 882.72,-616 882.72,-580 948.72,-580 948.72,-616"/>
<text text-anchor="middle" x="915.72" y="-595.5" font-family="Helvetica,sans-Serif" font-size="10.00" fill="#ffffff">packaging</text>
</g>
<!-- packaging&#45;&gt;gradio -->
<g id="edge32" class="edge">
<title>packaging&#45;&gt;gradio</title><style>.edge>path:hover{stroke-width:8}</style>
<path fill="none" stroke="black" d="M907.36,-579.95C901.24,-566.07 893.82,-545.77 892.72,-527"/>
<path fill="none" stroke="black" d="M892.72,-525C890.59,-488.78 871.74,-484.57 850.72,-455"/>
</g>
<!-- packaging&#45;&gt;gradio_client -->
<g id="edge33" class="edge">
<title>packaging&#45;&gt;gradio_client</title><style>.edge>path:hover{stroke-width:8}</style>
<path fill="none" stroke="black" d="M892.72,-525C890.8,-492.37 931.5,-502.32 943.72,-472 949.7,-457.16 953.46,-448.69 943.72,-436 857.23,-323.38 402.55,-260.76 249.24,-242.61"/>
<polygon fill="#2f8cdb" stroke="black" points="249.5,-239.11 239.16,-241.43 248.68,-246.07 249.5,-239.11"/>
</g>
<!-- packaging&#45;&gt;matplotlib -->
<g id="edge34" class="edge">
<title>packaging&#45;&gt;matplotlib</title><style>.edge>path:hover{stroke-width:8}</style>
<path fill="none" stroke="black" d="M948.82,-583.1C988.17,-566.1 1048.8,-538.22 1050.72,-527"/>
<path fill="none" stroke="black" d="M1050.72,-525C1053.12,-510.95 1055.8,-495.31 1058.01,-482.38"/>
<polygon fill="#2f8cdb" stroke="black" points="1061.51,-482.71 1059.75,-472.26 1054.61,-481.52 1061.51,-482.71"/>
</g>
<!-- PIL&#45;&gt;gradio -->
<g id="edge35" class="edge">
<title>PIL&#45;&gt;gradio</title><style>.edge>path:hover{stroke-width:8}</style>
<path fill="none" stroke="black" d="M1027.83,-579.92C1019.17,-546.18 994.91,-471.18 943.72,-436 844.67,-367.94 751.85,-492.99 675.72,-400"/>
</g>
<!-- PIL&#45;&gt;matplotlib -->
<g id="edge36" class="edge">
<title>PIL&#45;&gt;matplotlib</title><style>.edge>path:hover{stroke-width:8}</style>
<path fill="none" stroke="black" d="M1037.33,-579.95C1041.72,-565.9 1047.58,-545.37 1050.72,-527"/>
</g>
<!-- pydantic -->
<g id="node21" class="node">
<title>pydantic</title><style>.edge>path:hover{stroke-width:8}</style>
<polygon fill="blue" stroke="black" points="316.22,-472 313.22,-476 292.22,-476 289.22,-472 257.22,-472 257.22,-436 316.22,-436 316.22,-472"/>
<text text-anchor="middle" x="286.72" y="-451.5" font-family="Helvetica,sans-Serif" font-size="10.00" fill="white">pydantic</text>
</g>
<!-- pydantic&#45;&gt;gradio -->
<g id="edge37" class="edge">
<title>pydantic&#45;&gt;gradio</title><style>.edge>path:hover{stroke-width:8}</style>
<path fill="none" stroke="black" d="M257.02,-439.64C225.81,-425.37 181.26,-404.23 181.72,-400"/>
</g>
<!-- pydantic_core -->
<g id="node22" class="node">
<title>pydantic_core</title><style>.edge>path:hover{stroke-width:8}</style>
<polygon fill="blue" stroke="black" points="613.22,-616 610.22,-620 589.22,-620 586.22,-616 528.22,-616 528.22,-580 613.22,-580 613.22,-616"/>
<text text-anchor="middle" x="570.72" y="-595.5" font-family="Helvetica,sans-Serif" font-size="10.00" fill="white">pydantic_core</text>
</g>
<!-- pydantic_core&#45;&gt;gradio -->
<g id="edge38" class="edge">
<title>pydantic_core&#45;&gt;gradio</title><style>.edge>path:hover{stroke-width:8}</style>
<path fill="none" stroke="black" d="M570.45,-579.93C570.95,-550.27 576.4,-489.14 610.72,-455"/>
</g>
<!-- pydantic_core&#45;&gt;pydantic -->
<g id="edge39" class="edge">
<title>pydantic_core&#45;&gt;pydantic</title><style>.edge>path:hover{stroke-width:8}</style>
<path fill="none" stroke="black" d="M528.41,-579.98C504.47,-570.04 474.12,-556.95 447.72,-544 404.6,-522.86 356.59,-495.85 324.31,-477.16"/>
<polygon fill="blue" stroke="black" points="326.04,-474.12 315.64,-472.12 322.52,-480.17 326.04,-474.12"/>
</g>
<!-- pydub -->
<g id="node23" class="node">
<title>pydub</title><style>.edge>path:hover{stroke-width:8}</style>
<ellipse fill="#4747c2" stroke="black" cx="906.72" cy="-454" rx="27.84" ry="18"/>
<text text-anchor="middle" x="906.72" y="-451.5" font-family="Helvetica,sans-Serif" font-size="10.00" fill="#ffffff">pydub</text>
</g>
<!-- pydub&#45;&gt;gradio -->
<g id="edge40" class="edge">
<title>pydub&#45;&gt;gradio</title><style>.edge>path:hover{stroke-width:8}</style>
<path fill="none" stroke="black" d="M884.34,-442.99C878.07,-440.46 871.2,-437.91 864.72,-436 782.69,-411.84 729.89,-466.16 675.72,-400"/>
</g>
<!-- python_multipart -->
<g id="node24" class="node">
<title>python_multipart</title><style>.edge>path:hover{stroke-width:8}</style>
<polygon fill="#5740c0" stroke="black" points="557.22,-544 554.22,-548 533.22,-548 530.22,-544 456.22,-544 456.22,-508 557.22,-508 557.22,-544"/>
<text text-anchor="middle" x="506.72" y="-523.5" font-family="Helvetica,sans-Serif" font-size="10.00" fill="#ffffff">python_multipart</text>
</g>
<!-- python_multipart&#45;&gt;gradio -->
<g id="edge41" class="edge">
<title>python_multipart&#45;&gt;gradio</title><style>.edge>path:hover{stroke-width:8}</style>
<path fill="none" stroke="black" d="M537.05,-507.82C553.65,-497.99 574.33,-485.05 591.72,-472 600.78,-465.2 602.68,-462.99 610.72,-455"/>
<path fill="none" stroke="black" d="M610.72,-453C618.75,-445.01 621.03,-443.27 629.72,-436 649.62,-419.34 692.16,-420.09 675.72,-400"/>
</g>
<!-- safehttpx&#45;&gt;gradio -->
<g id="edge42" class="edge">
<title>safehttpx&#45;&gt;gradio</title><style>.edge>path:hover{stroke-width:8}</style>
<path fill="none" stroke="black" d="M680.84,-435.86C683.13,-424.46 683.76,-409.82 675.72,-400"/>
</g>
<!-- starlette&#45;&gt;fastapi -->
<g id="edge43" class="edge">
<title>starlette&#45;&gt;fastapi</title><style>.edge>path:hover{stroke-width:8}</style>
<path fill="none" stroke="black" d="M797.22,-507.7C797,-499.98 796.74,-490.71 796.49,-482.11"/>
<polygon fill="#8f10f9" stroke="black" points="799.99,-482 796.2,-472.1 792.99,-482.2 799.99,-482"/>
</g>
<!-- starlette&#45;&gt;gradio -->
<g id="edge44" class="edge">
<title>starlette&#45;&gt;gradio</title><style>.edge>path:hover{stroke-width:8}</style>
<path fill="none" stroke="black" d="M825.04,-507.95C844.03,-493.91 863.79,-473.38 850.72,-455"/>
<path fill="none" stroke="black" d="M850.72,-453C803.61,-386.78 727.2,-462.88 675.72,-400"/>
</g>
<!-- step_modules&#45;&gt;app_py -->
<g id="edge45" class="edge">
<title>step_modules&#45;&gt;app_py</title><style>.edge>path:hover{stroke-width:8}</style>
<path fill="none" stroke="black" d="M1051.88,-217.86C1043.43,-208.15 1035.75,-195.3 1037.72,-182"/>
<path fill="none" stroke="black" d="M1037.72,-181C1041.15,-157.7 1033.78,-151.23 1037.72,-128"/>
</g>
<!-- unified_pipeline_orchestrator -->
<g id="node31" class="node">
<title>unified_pipeline_orchestrator</title><style>.edge>path:hover{stroke-width:8}</style>
<ellipse fill="#8f3d6a" stroke="black" cx="1158.72" cy="-127" rx="93.02" ry="18"/>
<text text-anchor="middle" x="1158.72" y="-124.5" font-family="Helvetica,sans-Serif" font-size="10.00" fill="#ffffff">unified_pipeline_orchestrator</text>
</g>
<!-- step_modules&#45;&gt;unified_pipeline_orchestrator -->
<g id="edge46" class="edge">
<title>step_modules&#45;&gt;unified_pipeline_orchestrator</title><style>.edge>path:hover{stroke-width:8}</style>
<path fill="none" stroke="black" d="M1037.72,-181C1040.6,-161.49 1055.2,-149.1 1073.32,-141.26"/>
<polygon fill="#a147c2" stroke="black" points="1074.97,-144.38 1083.08,-137.56 1072.48,-137.83 1074.97,-144.38"/>
</g>
<!-- transformers&#45;&gt;gradio -->
<g id="edge47" class="edge">
<title>transformers&#45;&gt;gradio</title><style>.edge>path:hover{stroke-width:8}</style>
<path fill="none" stroke="black" d="M121.22,-507.74C141.4,-479.29 179.19,-423.36 181.72,-400"/>
</g>
<!-- trimesh&#45;&gt;step_modules -->
<g id="edge48" class="edge">
<title>trimesh&#45;&gt;step_modules</title><style>.edge>path:hover{stroke-width:8}</style>
<path fill="none" stroke="black" d="M1224.01,-337.57C1249.23,-330.02 1281.58,-315.34 1272.72,-291"/>
<path fill="none" stroke="black" d="M1272.72,-290C1262.38,-261.62 1179.92,-247.73 1123.6,-241.49"/>
<polygon fill="blue" stroke="black" points="1123.73,-237.98 1113.42,-240.41 1122.99,-244.95 1123.73,-237.98"/>
</g>
<!-- typing_extensions -->
<g id="node30" class="node">
<title>typing_extensions</title><style>.edge>path:hover{stroke-width:8}</style>
<ellipse fill="#f910ba" stroke="black" cx="460.72" cy="-742" rx="62.3" ry="18"/>
<text text-anchor="middle" x="460.72" y="-739.5" font-family="Helvetica,sans-Serif" font-size="10.00" fill="#ffffff">typing_extensions</text>
</g>
<!-- typing_extensions&#45;&gt;gradio -->
<g id="edge49" class="edge">
<title>typing_extensions&#45;&gt;gradio</title><style>.edge>path:hover{stroke-width:8}</style>
<path fill="none" stroke="black" d="M344.72,-525C334.17,-476.07 370.38,-461.04 413.72,-436 464.6,-406.6 711.73,-446.44 675.72,-400"/>
<path fill="none" stroke="black" d="M675.72,-399C647.69,-365.28 343.27,-351.18 235.92,-347.23"/>
<polygon fill="#f910ba" stroke="black" points="235.99,-343.73 225.87,-346.87 235.74,-350.73 235.99,-343.73"/>
</g>
<!-- typing_extensions&#45;&gt;gradio_client -->
<g id="edge50" class="edge">
<title>typing_extensions&#45;&gt;gradio_client</title><style>.edge>path:hover{stroke-width:8}</style>
<path fill="none" stroke="black" d="M399.89,-737.54C285.91,-730.51 49.13,-713.05 21.72,-688 -8.15,-660.72 2.72,-639.45 2.72,-599 2.72,-599 2.72,-599 2.72,-525 2.72,-482.66 12.17,-470.51 36.72,-436 72.73,-385.36 140.12,-408.04 143.72,-346"/>
<path fill="none" stroke="black" d="M143.72,-344C140.85,-313.48 159.35,-282.78 175.66,-262.14"/>
<polygon fill="#f910ba" stroke="black" points="178.54,-264.15 182.21,-254.21 173.14,-259.69 178.54,-264.15"/>
</g>
<!-- typing_extensions&#45;&gt;markupsafe -->
<g id="edge51" class="edge">
<title>typing_extensions&#45;&gt;markupsafe</title><style>.edge>path:hover{stroke-width:8}</style>
<path fill="none" stroke="black" d="M451.76,-724.05C447.44,-715.89 442.17,-705.91 437.37,-696.82"/>
<polygon fill="#f910ba" stroke="black" points="440.36,-694.99 432.59,-687.79 434.17,-698.27 440.36,-694.99"/>
</g>
<!-- typing_extensions&#45;&gt;matplotlib -->
<g id="edge52" class="edge">
<title>typing_extensions&#45;&gt;matplotlib</title><style>.edge>path:hover{stroke-width:8}</style>
<path fill="none" stroke="black" d="M522.3,-738.75C621.92,-732.38 821.05,-708.13 957.72,-616 958.46,-615.5 1050.55,-527.88 1050.72,-527"/>
</g>
<!-- typing_extensions&#45;&gt;pydantic -->
<g id="edge53" class="edge">
<title>typing_extensions&#45;&gt;pydantic</title><style>.edge>path:hover{stroke-width:8}</style>
<path fill="none" stroke="black" d="M422.81,-727.65C404.22,-719.16 383.19,-706.27 370.72,-688 329.83,-628.15 358.51,-598.16 344.72,-527"/>
<path fill="none" stroke="black" d="M344.72,-525C340.89,-507.24 328.78,-491.3 316.6,-479.13"/>
<polygon fill="#f910ba" stroke="black" points="318.77,-476.37 309.09,-472.06 313.97,-481.46 318.77,-476.37"/>
</g>
<!-- typing_extensions&#45;&gt;pydantic_core -->
<g id="edge54" class="edge">
<title>typing_extensions&#45;&gt;pydantic_core</title><style>.edge>path:hover{stroke-width:8}</style>
<path fill="none" stroke="black" d="M499.72,-669C509.04,-650.97 524.72,-634.77 538.98,-622.5"/>
<polygon fill="#f910ba" stroke="black" points="541.23,-625.18 546.71,-616.11 536.77,-619.79 541.23,-625.18"/>
</g>
<!-- typing_extensions&#45;&gt;python_multipart -->
<g id="edge55" class="edge">
<title>typing_extensions&#45;&gt;python_multipart</title><style>.edge>path:hover{stroke-width:8}</style>
<path fill="none" stroke="black" d="M470.47,-724.19C478.54,-710.1 490.19,-689.41 499.72,-671"/>
<path fill="none" stroke="black" d="M499.72,-669C518.4,-632.88 515.93,-584.43 511.8,-554.49"/>
<polygon fill="#f910ba" stroke="black" points="515.22,-553.7 510.24,-544.35 508.3,-554.77 515.22,-553.7"/>
</g>
<!-- typing_extensions&#45;&gt;starlette -->
<g id="edge56" class="edge">
<title>typing_extensions&#45;&gt;starlette</title><style>.edge>path:hover{stroke-width:8}</style>
<path fill="none" stroke="black" d="M520.63,-736.9C598.54,-730.53 729.2,-715.96 767.72,-688 803.91,-661.72 808.23,-643.26 814.72,-599"/>
</g>
<!-- unified_pipeline_orchestrator&#45;&gt;app_py -->
<g id="edge57" class="edge">
<title>unified_pipeline_orchestrator&#45;&gt;app_py</title><style>.edge>path:hover{stroke-width:8}</style>
<path fill="none" stroke="black" d="M1080.76,-117.04C1057.54,-109.68 1038.07,-96.5 1037.72,-73"/>
</g>
<!-- urllib3 -->
<g id="node32" class="node">
<title>urllib3</title><style>.edge>path:hover{stroke-width:8}</style>
<ellipse fill="#c0406e" stroke="black" cx="96.72" cy="-454" rx="27.84" ry="18"/>
<text text-anchor="middle" x="96.72" y="-451.5" font-family="Helvetica,sans-Serif" font-size="10.00" fill="#ffffff">urllib3</text>
</g>
<!-- urllib3&#45;&gt;gradio -->
<g id="edge58" class="edge">
<title>urllib3&#45;&gt;gradio</title><style>.edge>path:hover{stroke-width:8}</style>
<path fill="none" stroke="black" d="M119.38,-443.67C144.03,-432.81 180.14,-414.52 181.72,-400"/>
<path fill="none" stroke="black" d="M181.72,-399C182.66,-390.26 185.08,-381.03 187.81,-372.77"/>
<polygon fill="#c0406e" stroke="black" points="191.14,-373.87 191.21,-363.28 184.55,-371.51 191.14,-373.87"/>
</g>
<!-- yaml -->
<g id="node33" class="node">
<title>yaml</title><style>.edge>path:hover{stroke-width:8}</style>
<polygon fill="blue" stroke="black" points="1206.72,-760 1203.72,-764 1182.72,-764 1179.72,-760 1152.72,-760 1152.72,-724 1206.72,-724 1206.72,-760"/>
<text text-anchor="middle" x="1179.72" y="-739.5" font-family="Helvetica,sans-Serif" font-size="10.00" fill="white">yaml</text>
</g>
<!-- yaml&#45;&gt;gradio -->
<g id="edge59" class="edge">
<title>yaml&#45;&gt;gradio</title><style>.edge>path:hover{stroke-width:8}</style>
<path fill="none" stroke="black" d="M1179.92,-723.74C1180.03,-709.57 1180.09,-688.98 1179.72,-671"/>
<path fill="none" stroke="black" d="M1179.72,-669C1179.12,-640.53 1153.27,-642.82 1143.72,-616 1135.63,-593.3 1144.85,-413.23 1124.72,-400"/>
<path fill="none" stroke="black" d="M1124.72,-399C1047.63,-352.52 398.82,-346.8 235.77,-346.1"/>
<polygon fill="blue" stroke="black" points="235.76,-342.6 225.75,-346.06 235.73,-349.6 235.76,-342.6"/>
</g>
<!-- yaml&#45;&gt;numpy -->
<g id="edge60" class="edge">
<title>yaml&#45;&gt;numpy</title><style>.edge>path:hover{stroke-width:8}</style>
<path fill="none" stroke="black" d="M1179.72,-669C1179.72,-654.95 1179.72,-639.31 1179.72,-626.38"/>
<polygon fill="blue" stroke="black" points="1183.22,-626.26 1179.72,-616.26 1176.22,-626.26 1183.22,-626.26"/>
</g>
<!-- yaml&#45;&gt;step_modules -->
<g id="edge61" class="edge">
<title>yaml&#45;&gt;step_modules</title><style>.edge>path:hover{stroke-width:8}</style>
<path fill="none" stroke="black" d="M1272.72,-453C1271.57,-429.47 1267.1,-422.88 1272.72,-400"/>
</g>
<!-- yaml&#45;&gt;trimesh -->
<g id="edge62" class="edge">
<title>yaml&#45;&gt;trimesh</title><style>.edge>path:hover{stroke-width:8}</style>
<path fill="none" stroke="black" d="M1179.72,-669C1179.72,-640.52 1202.86,-641.41 1215.72,-616 1249.99,-548.27 1285.39,-529.84 1272.72,-455"/>
<path fill="none" stroke="black" d="M1272.72,-453C1269,-420.07 1244.98,-390.03 1224.92,-370.22"/>
<polygon fill="blue" stroke="black" points="1227.14,-367.49 1217.48,-363.14 1222.32,-372.57 1227.14,-367.49"/>
</g>
</g>
</svg>
